# xmcd CD database file
#
# Track frame offsets:
#	183
#	10458
#	32058
#	45855
#	61745
#	78888
#	91253
#	107333
#	124358
#	142130
#	156218
#	176058
#	191583
#	207848
#
# Disc length: 2879 seconds
#
# Revision: 0
# Processed by: cddbd v1.4b41PL1 Copyright (c) Steve Scherf et al.
# Submitted via: Feurio! 1.61 - http://www.feurio.com
#
DISCID=b30b3d0e
DTITLE=Truck Stop - In Concert
DYEAR=1900
DGENRE=
TTITLE0=Die Frau mit dem Gurt
TTITLE1=Johnny Cash - Medley - a) San Quentin - b) A Thing Called Love - c) I 
TTITLE1=Walk The Line - d) A Boy Named Sue - e) Folsom Prison Blues
TTITLE2=Amanda
TTITLE3=Du bist der absolute Wahnsinn
TTITLE4=I´m A Nut
TTITLE5=Freizeit Cowboy
TTITLE6=Good Hearted Woman
TTITLE7=Angeln entspannt
TTITLE8=Old Texas Town, die Western Stadt
TTITLE9=Take It Easy, altes Haus
TTITLE10=Cowboy bei der Bahn
TTITLE11=Blue Grass Medley: a) Are You Missing Me? - b) Roll In My Sweet 
TTITLE11=Baby´s Arms - c) Airmail Special - d) Ole Slew Foot
TTITLE12=Ich möcht´ so gern Dave Dudley hör´n
TTITLE13=Square Dance
EXTD=
EXTT0=
EXTT1=
EXTT2=
EXTT3=
EXTT4=
EXTT5=
EXTT6=
EXTT7=
EXTT8=
EXTT9=
EXTT10=
EXTT11=
EXTT12=
EXTT13=
PLAYORDER=
